<?xml version="1.0" encoding="UTF-8"?>
<svg width="66px" height="25px" viewBox="0 0 66 25" version="1.1" xmlns="http://www.w3.org/2000/svg" xmlns:xlink="http://www.w3.org/1999/xlink">
    <!-- Generator: Sketch 51 (57462) - http://www.bohemiancoding.com/sketch -->
    <title>logo sage</title>
    <desc>Created with Sketch.</desc>
    <defs></defs>
    <g id="Symbols" stroke="none" stroke-width="1" fill="none" fill-rule="evenodd">
        <g id="logo/sage" fill="#00DC00">
            <g id="logo-sage">
                <path d="M52.9696863,7.98723918 C52.9696863,4.845483 55.3220688,3.32704521 57.858681,3.32704521 C60.3949094,3.32704521 62.6820439,4.87150892 62.6820439,7.98723918 L52.9696863,7.98723918 Z M57.410005,0 C52.2408277,0 48.8571429,3.58924667 48.8571429,9.50917299 C48.8571429,16.8574175 54.0324612,18.9655172 57.7285688,18.9655172 C62.410689,18.9655172 65.0797162,15.7806435 65.0797162,15.7806435 L62.698164,13.3641171 C61.4346556,14.5127538 59.9692621,15.1999158 57.787292,15.1999158 C54.9060168,15.1999158 52.9639291,13.4942468 52.9639291,11.160848 L65.8028177,11.160848 C65.8028177,11.160848 68.0446624,0 57.410005,0 L57.410005,0 Z" id="Fill-6"></path>
                <path d="M10.7529534,7.67058096 C9.15309636,7.46275351 4.51766118,7.64999244 4.51766118,5.45556766 C4.51766118,4.15460667 6.46037139,3.45459721 8.25165789,3.45459721 C11.114127,3.45459721 13.0007543,4.64368099 13.5492447,5.03874737 L15.9540777,2.54015643 C15.2421992,1.94308953 12.5913495,0 8.25165789,0 C4.29781638,0 0.740667616,2.14780928 0.740667616,5.59269493 C0.740667616,10.878116 6.8791234,10.8765621 9.44248391,11.136832 C10.9948574,11.2941594 12.4126321,11.4052596 12.4126321,12.9866906 C12.4126321,14.4570212 10.2444688,15.2751233 8.56609578,15.2751233 C5.83074784,15.2751233 4.19163283,14.3412594 2.58803697,12.8433479 L0,15.5353932 C2.37380045,17.9166684 5.38096331,18.9655172 8.34363378,18.9655172 C12.9315855,18.9655172 16.2857143,16.8619927 16.2857143,12.629305 C16.2857143,9.82344025 14.4704991,8.15305141 10.7529534,7.67058096" id="Fill-7"></path>
                <path d="M28.0598645,11.9684285 C28.0598645,15.4807627 25.6426679,15.2915892 23.4839207,15.2915892 C21.298916,15.2915892 19.9035139,14.6891085 19.9035139,13.114346 C19.9035139,11.6467947 21.0400914,11.1604595 23.3882681,11.1604595 L28.0598645,11.1604595 L28.0598645,11.9684285 Z M24.0207004,0 C20.0175467,0 17.4225489,2.11043043 16.9397847,2.53616791 L19.3663591,5.04902902 C19.8494983,4.65203659 21.4962229,3.47582026 24.0510842,3.47582026 C27.1172178,3.47582026 28.0324816,4.74176776 28.0324816,6.17358196 L28.0324816,7.95655189 L22.5671565,7.96004791 C20.5464492,7.96004791 16.5714286,8.48716996 16.5714286,13.092593 C16.5714286,16.4755745 18.4450936,18.9655172 22.9178826,18.9655172 C25.1632797,18.9655172 26.861019,18.2119308 28.0324816,16.7587521 L28.0324816,18.5949392 L32,18.5949392 L32,6.44588303 C32,2.19705402 29.4841499,0 24.0207004,0 L24.0207004,0 Z" id="Fill-8"></path>
                <path d="M44.4447544,9.18372242 C44.4447544,10.556479 44.4216552,11.572959 44.308469,12.0904261 C44.0582276,13.233825 42.7296379,14.7368898 40.3180802,14.7368898 C39.7144208,14.7368898 36.6210514,14.3979376 36.2745632,11.776707 C36.2044956,11.2517077 36.1513674,10.556479 36.1513674,9.18372242 C36.1513674,7.14247676 36.2372194,6.49357154 36.3442458,5.97497463 C36.5571435,4.94681952 37.9315466,3.43471595 40.3180802,3.43471595 C43.2405155,3.43471595 44.1791134,5.38256145 44.3165538,6.13541202 C44.4120305,6.65626861 44.4447544,7.81096588 44.4447544,9.18372242 L44.4447544,9.18372242 Z M44.4447544,0.378120046 L44.4447544,2.35458817 C43.0580317,0.778460293 41.4025882,0 39.1423303,0 C35.282452,0 33.2947649,2.11769822 32.6218078,4.37248379 C32.3719513,5.21044903 32.2857143,6.81068018 32.2857143,9.17581354 C32.2857143,11.4042362 32.3065036,13.4307939 33.0988065,14.9892209 C34.2064137,17.1698136 36.895932,18.387782 39.1423303,18.387782 C41.319046,18.387782 43.166213,17.562245 44.4447544,16.1296069 L44.4447544,17.2360976 C44.4447544,18.5361677 43.9893149,19.3899507 43.1392639,20.0648423 C42.287288,20.7416169 41.2185645,21.1562685 39.7352101,21.1562685 C38.389681,21.1562685 37.099975,20.438443 36.3650351,19.9386767 L33.6285485,22.6152695 C35.4025679,24.0226745 37.5238455,24.9811561 39.8129774,24.9996102 C42.2387797,25.0191941 44.191048,24.3002387 45.9015447,22.9847275 C47.5388938,21.724955 48.5714286,19.3568087 48.5714286,16.8444195 L48.5714286,0.378120046 L44.4447544,0.378120046 Z" id="Fill-9"></path>
            </g>
        </g>
    </g>
</svg>